# xmcd
#
# Track frame offsets: 
#        150
#        25410
#        52504
#        78458
#        108068
#        132321
#        166358
#        195983
#        229584
#        254520
#        276091
#        303082
#        329290
#
# Disc length: 4630 seconds
#
# Revision: 2
# Processed by: cddbd v1.5.2PL0 Copyright (c) Steve Scherf et al.
# Submitted via: ExactAudioCopy v1.3
#
DISCID=9d12140d
DTITLE=Armentrout, Jennifer L. - Obsidian 4 - Origin - Schattenfunke
DYEAR=2015
DGENRE=Hörbuch
TTITLE0=45 Origin - Schattenfunke
TTITLE1=46 Origin - Schattenfunke
TTITLE2=47 Origin - Schattenfunke
TTITLE3=48 Origin - Schattenfunke
TTITLE4=49 Origin - Schattenfunke
TTITLE5=50 Origin - Schattenfunke
TTITLE6=51 Origin - Schattenfunke
TTITLE7=52 Origin - Schattenfunke
TTITLE8=53 Origin - Schattenfunke
TTITLE9=54 Origin - Schattenfunke
TTITLE10=55 Origin - Schattenfunke
TTITLE11=56 Origin - Schattenfunke
TTITLE12=57 Origin - Schattenfunke
EXTD=
EXTT0=
EXTT1=
EXTT2=
EXTT3=
EXTT4=
EXTT5=
EXTT6=
EXTT7=
EXTT8=
EXTT9=
EXTT10=
EXTT11=
EXTT12=
PLAYORDER=
